<?xml version="1.0" encoding="UTF-8"?> <!-- Generator: Adobe Illustrator 24.2.3, SVG Export Plug-In . SVG Version: 6.00 Build 0) --> <svg xmlns="http://www.w3.org/2000/svg" xmlns:xlink="http://www.w3.org/1999/xlink" version="1.1" id="Warstwa_1" x="0px" y="0px" viewBox="0 0 600 600" style="enable-background:new 0 0 600 600;" xml:space="preserve"> <style type="text/css"> .st0{fill:#FFFFFF;} .st1{fill:#FF4724;} .st2{fill:#9E1F63;} .st3{fill:#662D91;} </style> <g> <circle class="st0" cx="300" cy="300" r="300"></circle> </g> <g id="Layer_2"> <g id="Layer_1-2"> <polygon class="st0" points="214.9,361.9 385,361.9 300,215 "></polygon> <path class="st1" d="M300,107.1c-2.9,0-5.6,1.6-7,4.1L124.1,403c-1.5,2.5-1.5,5.6,0,8.2l103.1-59.9L300,225.5V107.1z"></path> <path class="st2" d="M475.9,403L307.1,111.2c-1.4-2.5-4.1-4.1-7-4.1v118.5l72.7,125.8l103.1,59.9 C477.4,408.7,477.4,405.5,475.9,403z"></path> <path class="st3" d="M475.9,411.1l-103.1-59.9H227.2l-103.1,59.9c1.5,2.5,4.1,4.1,7,4.1h337.7 C471.7,415.2,474.4,413.6,475.9,411.1z"></path> </g> </g> </svg> 