<svg xmlns="http://www.w3.org/2000/svg" id="&#x421;&#x43B;&#x43E;&#x439;_3" data-name="&#x421;&#x43B;&#x43E;&#x439; 3" viewBox="0 0 426.15 251.29"><defs><style>.cls-1{fill:#3a3a3a;}</style></defs><title>ccx-logo-2 (1)</title><path class="cls-1" d="M279.81,177A100.63,100.63,0,1,1,179.36,70.43V45.92A125.15,125.15,0,1,0,304.36,177Z" transform="translate(-54.21 -44.92)"></path><path class="cls-1" d="M229.54,177a51,51,0,1,1-50.63-57.3h.45V95.86h-.45A74.86,74.86,0,1,0,253.49,177Z" transform="translate(-54.21 -44.92)"></path><path class="cls-1" d="M254.76,164.15A100.63,100.63,0,1,1,355.21,270.69v24.52a125.15,125.15,0,1,0-125-131.06Z" transform="translate(-54.21 -44.92)"></path><path class="cls-1" d="M305,164.15a51,51,0,1,1,50.63,57.3l-.45,0v23.83l.45,0a74.86,74.86,0,1,0-74.58-81.13Z" transform="translate(-54.21 -44.92)"></path></svg>